<mxfile host="app.diagrams.net" modified="2023-09-12T10:58:39.830Z" agent="Mozilla/5.0 (Windows NT 10.0; Win64; x64) AppleWebKit/537.36 (KHTML, like Gecko) Chrome/116.0.0.0 Safari/537.36" etag="k10KEufg9REATZHwz3ie" version="21.7.2" type="github">
  <diagram name="第 1 页" id="BTiIjbq3qdNvm-K9t8wM">
    <mxGraphModel dx="1221" dy="662" grid="1" gridSize="10" guides="1" tooltips="1" connect="1" arrows="1" fold="1" page="1" pageScale="1" pageWidth="827" pageHeight="1169" math="0" shadow="0">
      <root>
        <mxCell id="0" />
        <mxCell id="1" parent="0" />
        <mxCell id="KJiBeKyjloX30PnVvFuR-1" value="vRouter 1" style="rounded=0;whiteSpace=wrap;html=1;" vertex="1" parent="1">
          <mxGeometry x="170" y="170" width="120" height="60" as="geometry" />
        </mxCell>
        <mxCell id="KJiBeKyjloX30PnVvFuR-2" value="vRouter 2" style="rounded=0;whiteSpace=wrap;html=1;" vertex="1" parent="1">
          <mxGeometry x="354" y="170" width="120" height="60" as="geometry" />
        </mxCell>
        <mxCell id="KJiBeKyjloX30PnVvFuR-3" value="" style="endArrow=none;html=1;rounded=0;" edge="1" parent="1">
          <mxGeometry width="50" height="50" relative="1" as="geometry">
            <mxPoint x="190" y="290" as="sourcePoint" />
            <mxPoint x="460" y="290" as="targetPoint" />
          </mxGeometry>
        </mxCell>
        <mxCell id="KJiBeKyjloX30PnVvFuR-4" value="managment network" style="text;html=1;strokeColor=none;fillColor=none;align=center;verticalAlign=middle;whiteSpace=wrap;rounded=0;" vertex="1" parent="1">
          <mxGeometry x="130" y="270" width="60" height="30" as="geometry" />
        </mxCell>
        <mxCell id="KJiBeKyjloX30PnVvFuR-6" value="" style="endArrow=none;html=1;rounded=0;entryX=0.5;entryY=1;entryDx=0;entryDy=0;" edge="1" parent="1" target="KJiBeKyjloX30PnVvFuR-1">
          <mxGeometry width="50" height="50" relative="1" as="geometry">
            <mxPoint x="230" y="290" as="sourcePoint" />
            <mxPoint x="280" y="340" as="targetPoint" />
          </mxGeometry>
        </mxCell>
        <mxCell id="KJiBeKyjloX30PnVvFuR-7" value="" style="endArrow=none;html=1;rounded=0;entryX=0.5;entryY=1;entryDx=0;entryDy=0;" edge="1" parent="1" target="KJiBeKyjloX30PnVvFuR-2">
          <mxGeometry width="50" height="50" relative="1" as="geometry">
            <mxPoint x="414" y="290" as="sourcePoint" />
            <mxPoint x="450" y="360" as="targetPoint" />
          </mxGeometry>
        </mxCell>
        <mxCell id="KJiBeKyjloX30PnVvFuR-8" value="" style="endArrow=none;html=1;rounded=0;" edge="1" parent="1">
          <mxGeometry width="50" height="50" relative="1" as="geometry">
            <mxPoint x="120" y="100" as="sourcePoint" />
            <mxPoint x="490" y="100" as="targetPoint" />
          </mxGeometry>
        </mxCell>
        <mxCell id="KJiBeKyjloX30PnVvFuR-11" value="public network" style="text;html=1;strokeColor=none;fillColor=none;align=center;verticalAlign=middle;whiteSpace=wrap;rounded=0;" vertex="1" parent="1">
          <mxGeometry x="60" y="80" width="60" height="30" as="geometry" />
        </mxCell>
        <mxCell id="KJiBeKyjloX30PnVvFuR-12" value="" style="endArrow=none;html=1;rounded=0;" edge="1" parent="1">
          <mxGeometry width="50" height="50" relative="1" as="geometry">
            <mxPoint x="180" y="130" as="sourcePoint" />
            <mxPoint x="650" y="130" as="targetPoint" />
          </mxGeometry>
        </mxCell>
        <mxCell id="KJiBeKyjloX30PnVvFuR-16" value="vpc network" style="text;html=1;strokeColor=none;fillColor=none;align=center;verticalAlign=middle;whiteSpace=wrap;rounded=0;" vertex="1" parent="1">
          <mxGeometry x="120" y="110" width="60" height="30" as="geometry" />
        </mxCell>
        <mxCell id="KJiBeKyjloX30PnVvFuR-18" style="edgeStyle=orthogonalEdgeStyle;rounded=0;orthogonalLoop=1;jettySize=auto;html=1;endArrow=none;endFill=0;" edge="1" parent="1" source="KJiBeKyjloX30PnVvFuR-17">
          <mxGeometry relative="1" as="geometry">
            <mxPoint x="330" y="100" as="targetPoint" />
          </mxGeometry>
        </mxCell>
        <mxCell id="KJiBeKyjloX30PnVvFuR-17" value="Physical Router" style="rounded=1;whiteSpace=wrap;html=1;" vertex="1" parent="1">
          <mxGeometry x="270" width="120" height="60" as="geometry" />
        </mxCell>
        <mxCell id="KJiBeKyjloX30PnVvFuR-20" style="edgeStyle=orthogonalEdgeStyle;rounded=0;orthogonalLoop=1;jettySize=auto;html=1;endArrow=none;endFill=0;" edge="1" parent="1" source="KJiBeKyjloX30PnVvFuR-19">
          <mxGeometry relative="1" as="geometry">
            <mxPoint x="610" y="130" as="targetPoint" />
          </mxGeometry>
        </mxCell>
        <mxCell id="KJiBeKyjloX30PnVvFuR-19" value="Vm" style="rounded=1;whiteSpace=wrap;html=1;" vertex="1" parent="1">
          <mxGeometry x="550" y="170" width="120" height="60" as="geometry" />
        </mxCell>
        <mxCell id="KJiBeKyjloX30PnVvFuR-21" value="Master" style="text;html=1;strokeColor=none;fillColor=none;align=center;verticalAlign=middle;whiteSpace=wrap;rounded=0;" vertex="1" parent="1">
          <mxGeometry x="110" y="190" width="60" height="30" as="geometry" />
        </mxCell>
        <mxCell id="KJiBeKyjloX30PnVvFuR-22" value="Backup" style="text;html=1;strokeColor=none;fillColor=none;align=center;verticalAlign=middle;whiteSpace=wrap;rounded=0;" vertex="1" parent="1">
          <mxGeometry x="300" y="185" width="60" height="30" as="geometry" />
        </mxCell>
        <mxCell id="KJiBeKyjloX30PnVvFuR-23" value="X" style="text;html=1;strokeColor=none;fillColor=none;align=center;verticalAlign=middle;whiteSpace=wrap;rounded=0;fontColor=#CC0000;fontSize=18;" vertex="1" parent="1">
          <mxGeometry x="354" y="160" width="60" height="30" as="geometry" />
        </mxCell>
        <mxCell id="KJiBeKyjloX30PnVvFuR-24" value="" style="endArrow=none;html=1;rounded=0;exitX=0.25;exitY=0;exitDx=0;exitDy=0;" edge="1" parent="1" source="KJiBeKyjloX30PnVvFuR-1">
          <mxGeometry width="50" height="50" relative="1" as="geometry">
            <mxPoint x="400" y="270" as="sourcePoint" />
            <mxPoint x="200" y="100" as="targetPoint" />
          </mxGeometry>
        </mxCell>
        <mxCell id="KJiBeKyjloX30PnVvFuR-25" value="" style="endArrow=none;html=1;rounded=0;exitX=0.75;exitY=0;exitDx=0;exitDy=0;" edge="1" parent="1" source="KJiBeKyjloX30PnVvFuR-1">
          <mxGeometry width="50" height="50" relative="1" as="geometry">
            <mxPoint x="400" y="270" as="sourcePoint" />
            <mxPoint x="260" y="100" as="targetPoint" />
          </mxGeometry>
        </mxCell>
        <mxCell id="KJiBeKyjloX30PnVvFuR-26" value="" style="endArrow=none;html=1;rounded=0;exitX=0.25;exitY=0;exitDx=0;exitDy=0;" edge="1" parent="1" source="KJiBeKyjloX30PnVvFuR-2">
          <mxGeometry width="50" height="50" relative="1" as="geometry">
            <mxPoint x="420" y="400" as="sourcePoint" />
            <mxPoint x="384" y="100" as="targetPoint" />
          </mxGeometry>
        </mxCell>
        <mxCell id="KJiBeKyjloX30PnVvFuR-27" value="" style="endArrow=none;html=1;rounded=0;exitX=0.75;exitY=0;exitDx=0;exitDy=0;" edge="1" parent="1" source="KJiBeKyjloX30PnVvFuR-2">
          <mxGeometry width="50" height="50" relative="1" as="geometry">
            <mxPoint x="400" y="270" as="sourcePoint" />
            <mxPoint x="444" y="100" as="targetPoint" />
          </mxGeometry>
        </mxCell>
        <mxCell id="KJiBeKyjloX30PnVvFuR-29" value="X" style="text;html=1;strokeColor=none;fillColor=none;align=center;verticalAlign=middle;whiteSpace=wrap;rounded=0;fontColor=#CC0000;fontSize=18;" vertex="1" parent="1">
          <mxGeometry x="414" y="160" width="60" height="30" as="geometry" />
        </mxCell>
        <mxCell id="KJiBeKyjloX30PnVvFuR-30" value="" style="curved=1;endArrow=classic;html=1;rounded=0;exitX=0.75;exitY=1;exitDx=0;exitDy=0;entryX=0.25;entryY=1;entryDx=0;entryDy=0;" edge="1" parent="1" source="KJiBeKyjloX30PnVvFuR-1" target="KJiBeKyjloX30PnVvFuR-2">
          <mxGeometry width="50" height="50" relative="1" as="geometry">
            <mxPoint x="270" y="430" as="sourcePoint" />
            <mxPoint x="320" y="380" as="targetPoint" />
            <Array as="points">
              <mxPoint x="260" y="290" />
              <mxPoint x="310" y="310" />
              <mxPoint x="330" y="310" />
              <mxPoint x="340" y="310" />
              <mxPoint x="360" y="300" />
            </Array>
          </mxGeometry>
        </mxCell>
        <mxCell id="KJiBeKyjloX30PnVvFuR-31" value="VRRP heart beat" style="text;html=1;strokeColor=none;fillColor=none;align=center;verticalAlign=middle;whiteSpace=wrap;rounded=0;" vertex="1" parent="1">
          <mxGeometry x="280" y="310" width="60" height="30" as="geometry" />
        </mxCell>
        <mxCell id="KJiBeKyjloX30PnVvFuR-32" value="MAC1" style="text;html=1;strokeColor=none;fillColor=none;align=center;verticalAlign=middle;whiteSpace=wrap;rounded=0;" vertex="1" parent="1">
          <mxGeometry x="170" y="160" width="60" height="30" as="geometry" />
        </mxCell>
        <mxCell id="KJiBeKyjloX30PnVvFuR-33" value="MAC2" style="text;html=1;strokeColor=none;fillColor=none;align=center;verticalAlign=middle;whiteSpace=wrap;rounded=0;" vertex="1" parent="1">
          <mxGeometry x="230" y="160" width="60" height="30" as="geometry" />
        </mxCell>
        <mxCell id="KJiBeKyjloX30PnVvFuR-34" value="MAC3" style="text;html=1;strokeColor=none;fillColor=none;align=center;verticalAlign=middle;whiteSpace=wrap;rounded=0;" vertex="1" parent="1">
          <mxGeometry x="354" y="170" width="60" height="30" as="geometry" />
        </mxCell>
        <mxCell id="KJiBeKyjloX30PnVvFuR-35" value="MAC4" style="text;html=1;strokeColor=none;fillColor=none;align=center;verticalAlign=middle;whiteSpace=wrap;rounded=0;" vertex="1" parent="1">
          <mxGeometry x="420" y="170" width="60" height="30" as="geometry" />
        </mxCell>
        <mxCell id="KJiBeKyjloX30PnVvFuR-36" value="IP: 202.59.4.x" style="text;html=1;strokeColor=none;fillColor=none;align=center;verticalAlign=middle;whiteSpace=wrap;rounded=0;" vertex="1" parent="1">
          <mxGeometry x="85" y="150" width="130" height="30" as="geometry" />
        </mxCell>
        <mxCell id="KJiBeKyjloX30PnVvFuR-37" value="IP: 10.202.101.1" style="text;html=1;strokeColor=none;fillColor=none;align=center;verticalAlign=middle;whiteSpace=wrap;rounded=0;" vertex="1" parent="1">
          <mxGeometry x="200" y="140" width="130" height="30" as="geometry" />
        </mxCell>
        <mxCell id="KJiBeKyjloX30PnVvFuR-38" value="ARP Table&lt;br&gt;202.59.4.x&amp;nbsp; &amp;nbsp;MAC1&amp;nbsp; Ethx" style="text;html=1;strokeColor=none;fillColor=none;align=center;verticalAlign=middle;whiteSpace=wrap;rounded=0;" vertex="1" parent="1">
          <mxGeometry x="390" y="20" width="170" height="30" as="geometry" />
        </mxCell>
        <mxCell id="KJiBeKyjloX30PnVvFuR-39" value="ARP Table&lt;br&gt;10.202.101.&amp;nbsp; &amp;nbsp;MAC2&amp;nbsp; eth0" style="text;html=1;strokeColor=none;fillColor=none;align=center;verticalAlign=middle;whiteSpace=wrap;rounded=0;" vertex="1" parent="1">
          <mxGeometry x="525" y="230" width="170" height="30" as="geometry" />
        </mxCell>
        <mxCell id="KJiBeKyjloX30PnVvFuR-40" value="IP: 202.59.4.x" style="text;html=1;strokeColor=none;fillColor=none;align=center;verticalAlign=middle;whiteSpace=wrap;rounded=0;" vertex="1" parent="1">
          <mxGeometry x="319" y="140" width="130" height="30" as="geometry" />
        </mxCell>
        <mxCell id="KJiBeKyjloX30PnVvFuR-41" value="IP: 10.202.101.1" style="text;html=1;strokeColor=none;fillColor=none;align=center;verticalAlign=middle;whiteSpace=wrap;rounded=0;" vertex="1" parent="1">
          <mxGeometry x="414" y="140" width="130" height="30" as="geometry" />
        </mxCell>
        <mxCell id="KJiBeKyjloX30PnVvFuR-42" value="vRouter 1" style="rounded=0;whiteSpace=wrap;html=1;" vertex="1" parent="1">
          <mxGeometry x="176.5" y="600" width="120" height="60" as="geometry" />
        </mxCell>
        <mxCell id="KJiBeKyjloX30PnVvFuR-43" value="vRouter 2" style="rounded=0;whiteSpace=wrap;html=1;" vertex="1" parent="1">
          <mxGeometry x="360.5" y="600" width="120" height="60" as="geometry" />
        </mxCell>
        <mxCell id="KJiBeKyjloX30PnVvFuR-44" value="" style="endArrow=none;html=1;rounded=0;" edge="1" parent="1">
          <mxGeometry width="50" height="50" relative="1" as="geometry">
            <mxPoint x="196.5" y="720" as="sourcePoint" />
            <mxPoint x="466.5" y="720" as="targetPoint" />
          </mxGeometry>
        </mxCell>
        <mxCell id="KJiBeKyjloX30PnVvFuR-45" value="managment network" style="text;html=1;strokeColor=none;fillColor=none;align=center;verticalAlign=middle;whiteSpace=wrap;rounded=0;" vertex="1" parent="1">
          <mxGeometry x="136.5" y="700" width="60" height="30" as="geometry" />
        </mxCell>
        <mxCell id="KJiBeKyjloX30PnVvFuR-46" value="" style="endArrow=none;html=1;rounded=0;entryX=0.5;entryY=1;entryDx=0;entryDy=0;" edge="1" parent="1" target="KJiBeKyjloX30PnVvFuR-42">
          <mxGeometry width="50" height="50" relative="1" as="geometry">
            <mxPoint x="236.5" y="720" as="sourcePoint" />
            <mxPoint x="286.5" y="770" as="targetPoint" />
          </mxGeometry>
        </mxCell>
        <mxCell id="KJiBeKyjloX30PnVvFuR-47" value="" style="endArrow=none;html=1;rounded=0;entryX=0.5;entryY=1;entryDx=0;entryDy=0;" edge="1" parent="1" target="KJiBeKyjloX30PnVvFuR-43">
          <mxGeometry width="50" height="50" relative="1" as="geometry">
            <mxPoint x="420.5" y="720" as="sourcePoint" />
            <mxPoint x="456.5" y="790" as="targetPoint" />
          </mxGeometry>
        </mxCell>
        <mxCell id="KJiBeKyjloX30PnVvFuR-48" value="" style="endArrow=none;html=1;rounded=0;" edge="1" parent="1">
          <mxGeometry width="50" height="50" relative="1" as="geometry">
            <mxPoint x="126.5" y="530" as="sourcePoint" />
            <mxPoint x="496.5" y="530" as="targetPoint" />
          </mxGeometry>
        </mxCell>
        <mxCell id="KJiBeKyjloX30PnVvFuR-49" value="public network" style="text;html=1;strokeColor=none;fillColor=none;align=center;verticalAlign=middle;whiteSpace=wrap;rounded=0;" vertex="1" parent="1">
          <mxGeometry x="66.5" y="510" width="60" height="30" as="geometry" />
        </mxCell>
        <mxCell id="KJiBeKyjloX30PnVvFuR-50" value="" style="endArrow=none;html=1;rounded=0;" edge="1" parent="1">
          <mxGeometry width="50" height="50" relative="1" as="geometry">
            <mxPoint x="186.5" y="560" as="sourcePoint" />
            <mxPoint x="656.5" y="560" as="targetPoint" />
          </mxGeometry>
        </mxCell>
        <mxCell id="KJiBeKyjloX30PnVvFuR-51" value="vpc network" style="text;html=1;strokeColor=none;fillColor=none;align=center;verticalAlign=middle;whiteSpace=wrap;rounded=0;" vertex="1" parent="1">
          <mxGeometry x="126.5" y="540" width="60" height="30" as="geometry" />
        </mxCell>
        <mxCell id="KJiBeKyjloX30PnVvFuR-52" style="edgeStyle=orthogonalEdgeStyle;rounded=0;orthogonalLoop=1;jettySize=auto;html=1;endArrow=none;endFill=0;" edge="1" parent="1" source="KJiBeKyjloX30PnVvFuR-53">
          <mxGeometry relative="1" as="geometry">
            <mxPoint x="336.5" y="530" as="targetPoint" />
          </mxGeometry>
        </mxCell>
        <mxCell id="KJiBeKyjloX30PnVvFuR-53" value="Physical Router" style="rounded=1;whiteSpace=wrap;html=1;" vertex="1" parent="1">
          <mxGeometry x="276.5" y="430" width="120" height="60" as="geometry" />
        </mxCell>
        <mxCell id="KJiBeKyjloX30PnVvFuR-54" style="edgeStyle=orthogonalEdgeStyle;rounded=0;orthogonalLoop=1;jettySize=auto;html=1;endArrow=none;endFill=0;" edge="1" parent="1" source="KJiBeKyjloX30PnVvFuR-55">
          <mxGeometry relative="1" as="geometry">
            <mxPoint x="616.5" y="560" as="targetPoint" />
          </mxGeometry>
        </mxCell>
        <mxCell id="KJiBeKyjloX30PnVvFuR-55" value="Vm" style="rounded=1;whiteSpace=wrap;html=1;" vertex="1" parent="1">
          <mxGeometry x="556.5" y="600" width="120" height="60" as="geometry" />
        </mxCell>
        <mxCell id="KJiBeKyjloX30PnVvFuR-56" value="&lt;font color=&quot;#67ab9f&quot; style=&quot;font-size: 14px;&quot;&gt;Backup&lt;/font&gt;" style="text;html=1;strokeColor=none;fillColor=none;align=center;verticalAlign=middle;whiteSpace=wrap;rounded=0;fontSize=14;" vertex="1" parent="1">
          <mxGeometry x="116.5" y="620" width="60" height="30" as="geometry" />
        </mxCell>
        <mxCell id="KJiBeKyjloX30PnVvFuR-57" value="&lt;font color=&quot;#67ab9f&quot; style=&quot;font-size: 15px;&quot;&gt;Master&lt;/font&gt;" style="text;html=1;strokeColor=none;fillColor=none;align=center;verticalAlign=middle;whiteSpace=wrap;rounded=0;fontSize=15;" vertex="1" parent="1">
          <mxGeometry x="306.5" y="615" width="60" height="30" as="geometry" />
        </mxCell>
        <mxCell id="KJiBeKyjloX30PnVvFuR-58" value="X" style="text;html=1;strokeColor=none;fillColor=none;align=center;verticalAlign=middle;whiteSpace=wrap;rounded=0;fontColor=#CC0000;fontSize=18;" vertex="1" parent="1">
          <mxGeometry x="176.5" y="585" width="60" height="30" as="geometry" />
        </mxCell>
        <mxCell id="KJiBeKyjloX30PnVvFuR-59" value="" style="endArrow=none;html=1;rounded=0;exitX=0.25;exitY=0;exitDx=0;exitDy=0;" edge="1" parent="1" source="KJiBeKyjloX30PnVvFuR-42">
          <mxGeometry width="50" height="50" relative="1" as="geometry">
            <mxPoint x="406.5" y="700" as="sourcePoint" />
            <mxPoint x="206.5" y="530" as="targetPoint" />
          </mxGeometry>
        </mxCell>
        <mxCell id="KJiBeKyjloX30PnVvFuR-60" value="" style="endArrow=none;html=1;rounded=0;exitX=0.75;exitY=0;exitDx=0;exitDy=0;" edge="1" parent="1" source="KJiBeKyjloX30PnVvFuR-42">
          <mxGeometry width="50" height="50" relative="1" as="geometry">
            <mxPoint x="406.5" y="700" as="sourcePoint" />
            <mxPoint x="266.5" y="530" as="targetPoint" />
          </mxGeometry>
        </mxCell>
        <mxCell id="KJiBeKyjloX30PnVvFuR-61" value="" style="endArrow=none;html=1;rounded=0;exitX=0.25;exitY=0;exitDx=0;exitDy=0;" edge="1" parent="1" source="KJiBeKyjloX30PnVvFuR-43">
          <mxGeometry width="50" height="50" relative="1" as="geometry">
            <mxPoint x="426.5" y="830" as="sourcePoint" />
            <mxPoint x="390.5" y="530" as="targetPoint" />
          </mxGeometry>
        </mxCell>
        <mxCell id="KJiBeKyjloX30PnVvFuR-62" value="" style="endArrow=none;html=1;rounded=0;exitX=0.75;exitY=0;exitDx=0;exitDy=0;" edge="1" parent="1" source="KJiBeKyjloX30PnVvFuR-43">
          <mxGeometry width="50" height="50" relative="1" as="geometry">
            <mxPoint x="406.5" y="700" as="sourcePoint" />
            <mxPoint x="450.5" y="530" as="targetPoint" />
          </mxGeometry>
        </mxCell>
        <mxCell id="KJiBeKyjloX30PnVvFuR-63" value="X" style="text;html=1;strokeColor=none;fillColor=none;align=center;verticalAlign=middle;whiteSpace=wrap;rounded=0;fontColor=#CC0000;fontSize=18;" vertex="1" parent="1">
          <mxGeometry x="236.5" y="585" width="60" height="30" as="geometry" />
        </mxCell>
        <mxCell id="KJiBeKyjloX30PnVvFuR-64" value="" style="curved=1;endArrow=none;html=1;rounded=0;exitX=0.75;exitY=1;exitDx=0;exitDy=0;entryX=0.25;entryY=1;entryDx=0;entryDy=0;startArrow=classic;startFill=1;endFill=0;" edge="1" parent="1" source="KJiBeKyjloX30PnVvFuR-42" target="KJiBeKyjloX30PnVvFuR-43">
          <mxGeometry width="50" height="50" relative="1" as="geometry">
            <mxPoint x="276.5" y="860" as="sourcePoint" />
            <mxPoint x="326.5" y="810" as="targetPoint" />
            <Array as="points">
              <mxPoint x="266.5" y="720" />
              <mxPoint x="316.5" y="740" />
              <mxPoint x="336.5" y="740" />
              <mxPoint x="346.5" y="740" />
              <mxPoint x="366.5" y="730" />
            </Array>
          </mxGeometry>
        </mxCell>
        <mxCell id="KJiBeKyjloX30PnVvFuR-65" value="VRRP heart beat" style="text;html=1;strokeColor=none;fillColor=none;align=center;verticalAlign=middle;whiteSpace=wrap;rounded=0;" vertex="1" parent="1">
          <mxGeometry x="286.5" y="740" width="60" height="30" as="geometry" />
        </mxCell>
        <mxCell id="KJiBeKyjloX30PnVvFuR-66" value="MAC1" style="text;html=1;strokeColor=none;fillColor=none;align=center;verticalAlign=middle;whiteSpace=wrap;rounded=0;" vertex="1" parent="1">
          <mxGeometry x="176.5" y="590" width="60" height="30" as="geometry" />
        </mxCell>
        <mxCell id="KJiBeKyjloX30PnVvFuR-67" value="MAC2" style="text;html=1;strokeColor=none;fillColor=none;align=center;verticalAlign=middle;whiteSpace=wrap;rounded=0;" vertex="1" parent="1">
          <mxGeometry x="236.5" y="590" width="60" height="30" as="geometry" />
        </mxCell>
        <mxCell id="KJiBeKyjloX30PnVvFuR-68" value="MAC3" style="text;html=1;strokeColor=none;fillColor=none;align=center;verticalAlign=middle;whiteSpace=wrap;rounded=0;" vertex="1" parent="1">
          <mxGeometry x="360.5" y="600" width="60" height="30" as="geometry" />
        </mxCell>
        <mxCell id="KJiBeKyjloX30PnVvFuR-69" value="MAC4" style="text;html=1;strokeColor=none;fillColor=none;align=center;verticalAlign=middle;whiteSpace=wrap;rounded=0;" vertex="1" parent="1">
          <mxGeometry x="420" y="600" width="60" height="30" as="geometry" />
        </mxCell>
        <mxCell id="KJiBeKyjloX30PnVvFuR-70" value="IP: 202.59.4.x" style="text;html=1;strokeColor=none;fillColor=none;align=center;verticalAlign=middle;whiteSpace=wrap;rounded=0;" vertex="1" parent="1">
          <mxGeometry x="91.5" y="580" width="130" height="30" as="geometry" />
        </mxCell>
        <mxCell id="KJiBeKyjloX30PnVvFuR-71" value="IP: 10.202.101.1" style="text;html=1;strokeColor=none;fillColor=none;align=center;verticalAlign=middle;whiteSpace=wrap;rounded=0;" vertex="1" parent="1">
          <mxGeometry x="206.5" y="570" width="130" height="30" as="geometry" />
        </mxCell>
        <mxCell id="KJiBeKyjloX30PnVvFuR-72" value="ARP Table&lt;br&gt;202.59.4.x&amp;nbsp; &amp;nbsp;&lt;font color=&quot;#67ab9f&quot; style=&quot;font-size: 14px;&quot;&gt;MAC3&amp;nbsp; &lt;/font&gt;Ethx" style="text;html=1;strokeColor=none;fillColor=none;align=center;verticalAlign=middle;whiteSpace=wrap;rounded=0;" vertex="1" parent="1">
          <mxGeometry x="396.5" y="450" width="170" height="30" as="geometry" />
        </mxCell>
        <mxCell id="KJiBeKyjloX30PnVvFuR-73" value="ARP Table&lt;br&gt;10.202.101.&amp;nbsp; &amp;nbsp;&lt;font style=&quot;font-size: 14px;&quot; color=&quot;#67ab9f&quot;&gt;MAC4&amp;nbsp; &lt;/font&gt;eth0" style="text;html=1;strokeColor=none;fillColor=none;align=center;verticalAlign=middle;whiteSpace=wrap;rounded=0;" vertex="1" parent="1">
          <mxGeometry x="531.5" y="660" width="170" height="30" as="geometry" />
        </mxCell>
        <mxCell id="KJiBeKyjloX30PnVvFuR-74" value="IP: 202.59.4.x" style="text;html=1;strokeColor=none;fillColor=none;align=center;verticalAlign=middle;whiteSpace=wrap;rounded=0;" vertex="1" parent="1">
          <mxGeometry x="325.5" y="570" width="130" height="30" as="geometry" />
        </mxCell>
        <mxCell id="KJiBeKyjloX30PnVvFuR-75" value="IP: 10.202.101.1" style="text;html=1;strokeColor=none;fillColor=none;align=center;verticalAlign=middle;whiteSpace=wrap;rounded=0;" vertex="1" parent="1">
          <mxGeometry x="420.5" y="570" width="130" height="30" as="geometry" />
        </mxCell>
        <mxCell id="KJiBeKyjloX30PnVvFuR-77" value="vRouter 1" style="rounded=0;whiteSpace=wrap;html=1;" vertex="1" parent="1">
          <mxGeometry x="236.5" y="1050" width="120" height="60" as="geometry" />
        </mxCell>
        <mxCell id="KJiBeKyjloX30PnVvFuR-78" value="vRouter 2" style="rounded=0;whiteSpace=wrap;html=1;" vertex="1" parent="1">
          <mxGeometry x="420.5" y="1050" width="120" height="60" as="geometry" />
        </mxCell>
        <mxCell id="KJiBeKyjloX30PnVvFuR-79" value="" style="endArrow=none;html=1;rounded=0;" edge="1" parent="1">
          <mxGeometry width="50" height="50" relative="1" as="geometry">
            <mxPoint x="256.5" y="1170" as="sourcePoint" />
            <mxPoint x="526.5" y="1170" as="targetPoint" />
          </mxGeometry>
        </mxCell>
        <mxCell id="KJiBeKyjloX30PnVvFuR-80" value="managment network" style="text;html=1;strokeColor=none;fillColor=none;align=center;verticalAlign=middle;whiteSpace=wrap;rounded=0;" vertex="1" parent="1">
          <mxGeometry x="196.5" y="1150" width="60" height="30" as="geometry" />
        </mxCell>
        <mxCell id="KJiBeKyjloX30PnVvFuR-81" value="" style="endArrow=none;html=1;rounded=0;entryX=0.5;entryY=1;entryDx=0;entryDy=0;" edge="1" parent="1" target="KJiBeKyjloX30PnVvFuR-77">
          <mxGeometry width="50" height="50" relative="1" as="geometry">
            <mxPoint x="296.5" y="1170" as="sourcePoint" />
            <mxPoint x="346.5" y="1220" as="targetPoint" />
          </mxGeometry>
        </mxCell>
        <mxCell id="KJiBeKyjloX30PnVvFuR-82" value="" style="endArrow=none;html=1;rounded=0;entryX=0.5;entryY=1;entryDx=0;entryDy=0;" edge="1" parent="1" target="KJiBeKyjloX30PnVvFuR-78">
          <mxGeometry width="50" height="50" relative="1" as="geometry">
            <mxPoint x="480.5" y="1170" as="sourcePoint" />
            <mxPoint x="516.5" y="1240" as="targetPoint" />
          </mxGeometry>
        </mxCell>
        <mxCell id="KJiBeKyjloX30PnVvFuR-83" value="" style="endArrow=none;html=1;rounded=0;" edge="1" parent="1">
          <mxGeometry width="50" height="50" relative="1" as="geometry">
            <mxPoint x="186.5" y="980" as="sourcePoint" />
            <mxPoint x="556.5" y="980" as="targetPoint" />
          </mxGeometry>
        </mxCell>
        <mxCell id="KJiBeKyjloX30PnVvFuR-84" value="public network" style="text;html=1;strokeColor=none;fillColor=none;align=center;verticalAlign=middle;whiteSpace=wrap;rounded=0;" vertex="1" parent="1">
          <mxGeometry x="126.5" y="960" width="60" height="30" as="geometry" />
        </mxCell>
        <mxCell id="KJiBeKyjloX30PnVvFuR-85" value="" style="endArrow=none;html=1;rounded=0;" edge="1" parent="1">
          <mxGeometry width="50" height="50" relative="1" as="geometry">
            <mxPoint x="246.5" y="1010" as="sourcePoint" />
            <mxPoint x="716.5" y="1010" as="targetPoint" />
          </mxGeometry>
        </mxCell>
        <mxCell id="KJiBeKyjloX30PnVvFuR-86" value="vpc network" style="text;html=1;strokeColor=none;fillColor=none;align=center;verticalAlign=middle;whiteSpace=wrap;rounded=0;" vertex="1" parent="1">
          <mxGeometry x="186.5" y="990" width="60" height="30" as="geometry" />
        </mxCell>
        <mxCell id="KJiBeKyjloX30PnVvFuR-87" style="edgeStyle=orthogonalEdgeStyle;rounded=0;orthogonalLoop=1;jettySize=auto;html=1;endArrow=none;endFill=0;" edge="1" parent="1" source="KJiBeKyjloX30PnVvFuR-88">
          <mxGeometry relative="1" as="geometry">
            <mxPoint x="396.5" y="980" as="targetPoint" />
          </mxGeometry>
        </mxCell>
        <mxCell id="KJiBeKyjloX30PnVvFuR-88" value="Physical Router" style="rounded=1;whiteSpace=wrap;html=1;" vertex="1" parent="1">
          <mxGeometry x="336.5" y="880" width="120" height="60" as="geometry" />
        </mxCell>
        <mxCell id="KJiBeKyjloX30PnVvFuR-89" style="edgeStyle=orthogonalEdgeStyle;rounded=0;orthogonalLoop=1;jettySize=auto;html=1;endArrow=none;endFill=0;" edge="1" parent="1" source="KJiBeKyjloX30PnVvFuR-90">
          <mxGeometry relative="1" as="geometry">
            <mxPoint x="676.5" y="1010" as="targetPoint" />
          </mxGeometry>
        </mxCell>
        <mxCell id="KJiBeKyjloX30PnVvFuR-90" value="Vm" style="rounded=1;whiteSpace=wrap;html=1;" vertex="1" parent="1">
          <mxGeometry x="616.5" y="1050" width="120" height="60" as="geometry" />
        </mxCell>
        <mxCell id="KJiBeKyjloX30PnVvFuR-91" value="&lt;font color=&quot;#67ab9f&quot; style=&quot;font-size: 14px;&quot;&gt;Master&lt;/font&gt;" style="text;html=1;strokeColor=none;fillColor=none;align=center;verticalAlign=middle;whiteSpace=wrap;rounded=0;fontSize=14;" vertex="1" parent="1">
          <mxGeometry x="176.5" y="1070" width="60" height="30" as="geometry" />
        </mxCell>
        <mxCell id="KJiBeKyjloX30PnVvFuR-92" value="&lt;font color=&quot;#67ab9f&quot; style=&quot;font-size: 15px;&quot;&gt;Master&lt;/font&gt;" style="text;html=1;strokeColor=none;fillColor=none;align=center;verticalAlign=middle;whiteSpace=wrap;rounded=0;fontSize=15;" vertex="1" parent="1">
          <mxGeometry x="366.5" y="1065" width="60" height="30" as="geometry" />
        </mxCell>
        <mxCell id="KJiBeKyjloX30PnVvFuR-94" value="" style="endArrow=none;html=1;rounded=0;exitX=0.25;exitY=0;exitDx=0;exitDy=0;" edge="1" parent="1" source="KJiBeKyjloX30PnVvFuR-77">
          <mxGeometry width="50" height="50" relative="1" as="geometry">
            <mxPoint x="466.5" y="1150" as="sourcePoint" />
            <mxPoint x="266.5" y="980" as="targetPoint" />
          </mxGeometry>
        </mxCell>
        <mxCell id="KJiBeKyjloX30PnVvFuR-95" value="" style="endArrow=none;html=1;rounded=0;exitX=0.75;exitY=0;exitDx=0;exitDy=0;" edge="1" parent="1" source="KJiBeKyjloX30PnVvFuR-77">
          <mxGeometry width="50" height="50" relative="1" as="geometry">
            <mxPoint x="466.5" y="1150" as="sourcePoint" />
            <mxPoint x="326.5" y="980" as="targetPoint" />
          </mxGeometry>
        </mxCell>
        <mxCell id="KJiBeKyjloX30PnVvFuR-96" value="" style="endArrow=none;html=1;rounded=0;exitX=0.25;exitY=0;exitDx=0;exitDy=0;" edge="1" parent="1" source="KJiBeKyjloX30PnVvFuR-78">
          <mxGeometry width="50" height="50" relative="1" as="geometry">
            <mxPoint x="486.5" y="1280" as="sourcePoint" />
            <mxPoint x="450.5" y="980" as="targetPoint" />
          </mxGeometry>
        </mxCell>
        <mxCell id="KJiBeKyjloX30PnVvFuR-97" value="" style="endArrow=none;html=1;rounded=0;exitX=0.75;exitY=0;exitDx=0;exitDy=0;" edge="1" parent="1" source="KJiBeKyjloX30PnVvFuR-78">
          <mxGeometry width="50" height="50" relative="1" as="geometry">
            <mxPoint x="466.5" y="1150" as="sourcePoint" />
            <mxPoint x="510.5" y="980" as="targetPoint" />
          </mxGeometry>
        </mxCell>
        <mxCell id="KJiBeKyjloX30PnVvFuR-100" value="VRRP heart beat" style="text;html=1;strokeColor=none;fillColor=none;align=center;verticalAlign=middle;whiteSpace=wrap;rounded=0;" vertex="1" parent="1">
          <mxGeometry x="346.5" y="1190" width="60" height="30" as="geometry" />
        </mxCell>
        <mxCell id="KJiBeKyjloX30PnVvFuR-101" value="MAC1" style="text;html=1;strokeColor=none;fillColor=none;align=center;verticalAlign=middle;whiteSpace=wrap;rounded=0;" vertex="1" parent="1">
          <mxGeometry x="236.5" y="1050" width="60" height="30" as="geometry" />
        </mxCell>
        <mxCell id="KJiBeKyjloX30PnVvFuR-102" value="MAC2" style="text;html=1;strokeColor=none;fillColor=none;align=center;verticalAlign=middle;whiteSpace=wrap;rounded=0;" vertex="1" parent="1">
          <mxGeometry x="296.5" y="1040" width="60" height="30" as="geometry" />
        </mxCell>
        <mxCell id="KJiBeKyjloX30PnVvFuR-103" value="MAC3" style="text;html=1;strokeColor=none;fillColor=none;align=center;verticalAlign=middle;whiteSpace=wrap;rounded=0;" vertex="1" parent="1">
          <mxGeometry x="420.5" y="1050" width="60" height="30" as="geometry" />
        </mxCell>
        <mxCell id="KJiBeKyjloX30PnVvFuR-104" value="MAC4" style="text;html=1;strokeColor=none;fillColor=none;align=center;verticalAlign=middle;whiteSpace=wrap;rounded=0;" vertex="1" parent="1">
          <mxGeometry x="480" y="1050" width="60" height="30" as="geometry" />
        </mxCell>
        <mxCell id="KJiBeKyjloX30PnVvFuR-105" value="IP: 202.59.4.x" style="text;html=1;strokeColor=none;fillColor=none;align=center;verticalAlign=middle;whiteSpace=wrap;rounded=0;" vertex="1" parent="1">
          <mxGeometry x="186.5" y="1030" width="130" height="30" as="geometry" />
        </mxCell>
        <mxCell id="KJiBeKyjloX30PnVvFuR-106" value="IP: 10.202.101.1" style="text;html=1;strokeColor=none;fillColor=none;align=center;verticalAlign=middle;whiteSpace=wrap;rounded=0;" vertex="1" parent="1">
          <mxGeometry x="266.5" y="1020" width="130" height="30" as="geometry" />
        </mxCell>
        <mxCell id="KJiBeKyjloX30PnVvFuR-107" value="ARP Table&lt;br&gt;202.59.4.x&amp;nbsp; &amp;nbsp;&lt;font color=&quot;#67ab9f&quot; style=&quot;font-size: 14px;&quot;&gt;MAC3&amp;nbsp; &lt;/font&gt;Ethx" style="text;html=1;strokeColor=none;fillColor=none;align=center;verticalAlign=middle;whiteSpace=wrap;rounded=0;" vertex="1" parent="1">
          <mxGeometry x="456.5" y="900" width="170" height="30" as="geometry" />
        </mxCell>
        <mxCell id="KJiBeKyjloX30PnVvFuR-108" value="ARP Table&lt;br&gt;10.202.101.&amp;nbsp; &amp;nbsp;&lt;font style=&quot;font-size: 14px;&quot; color=&quot;#67ab9f&quot;&gt;MAC4&amp;nbsp; &lt;/font&gt;eth0" style="text;html=1;strokeColor=none;fillColor=none;align=center;verticalAlign=middle;whiteSpace=wrap;rounded=0;" vertex="1" parent="1">
          <mxGeometry x="591.5" y="1110" width="170" height="30" as="geometry" />
        </mxCell>
        <mxCell id="KJiBeKyjloX30PnVvFuR-109" value="IP: 202.59.4.x" style="text;html=1;strokeColor=none;fillColor=none;align=center;verticalAlign=middle;whiteSpace=wrap;rounded=0;" vertex="1" parent="1">
          <mxGeometry x="385.5" y="1020" width="130" height="30" as="geometry" />
        </mxCell>
        <mxCell id="KJiBeKyjloX30PnVvFuR-110" value="IP: 10.202.101.1" style="text;html=1;strokeColor=none;fillColor=none;align=center;verticalAlign=middle;whiteSpace=wrap;rounded=0;" vertex="1" parent="1">
          <mxGeometry x="480.5" y="1020" width="130" height="30" as="geometry" />
        </mxCell>
        <mxCell id="KJiBeKyjloX30PnVvFuR-113" value="" style="curved=1;endArrow=classic;html=1;rounded=0;exitX=0.5;exitY=0;exitDx=0;exitDy=0;strokeColor=#CC0000;startArrow=classic;startFill=1;" edge="1" parent="1" source="KJiBeKyjloX30PnVvFuR-90">
          <mxGeometry width="50" height="50" relative="1" as="geometry">
            <mxPoint x="400" y="990" as="sourcePoint" />
            <mxPoint x="410" y="860" as="targetPoint" />
            <Array as="points">
              <mxPoint x="500" y="1170" />
              <mxPoint x="400" y="940" />
            </Array>
          </mxGeometry>
        </mxCell>
        <mxCell id="KJiBeKyjloX30PnVvFuR-114" value="" style="curved=1;endArrow=classic;html=1;rounded=0;strokeColor=#CC0000;startArrow=classic;startFill=1;" edge="1" parent="1">
          <mxGeometry width="50" height="50" relative="1" as="geometry">
            <mxPoint x="670" y="1050" as="sourcePoint" />
            <mxPoint x="360" y="870" as="targetPoint" />
            <Array as="points">
              <mxPoint x="390" y="1240" />
              <mxPoint x="300" y="960" />
            </Array>
          </mxGeometry>
        </mxCell>
      </root>
    </mxGraphModel>
  </diagram>
</mxfile>
